<svg width="20" height="20" viewBox="0 0 20 20" fill="none" xmlns="http://www.w3.org/2000/svg">
<path fill-rule="evenodd" clip-rule="evenodd" d="M1.75 2.87109C1.33579 2.87109 1 3.20688 1 3.62109C1 4.03531 1.33579 4.37109 1.75 4.37109H3.77954L4.30605 6.83564C4.30952 6.85601 4.31383 6.87609 4.31891 6.89586L5.41883 12.0446L5.41899 12.0453C5.51845 12.5135 5.78816 12.9233 6.16724 13.2092C6.54357 13.493 7.00687 13.64 7.47665 13.6332H13.8707C14.3405 13.64 14.8038 13.493 15.1801 13.2092C15.5594 12.9232 15.8292 12.5131 15.9285 12.0446L15.9286 12.0446L15.9298 12.0386L16.9843 6.85804C17.0292 6.63742 16.9726 6.4083 16.8302 6.23395C16.6877 6.05959 16.4745 5.95845 16.2493 5.95845H5.6525L5.11969 3.46441C5.04577 3.11838 4.74007 2.87109 4.38624 2.87109H1.75ZM6.88598 11.7323L5.97294 7.45845H15.3313L14.4607 11.7357C14.4391 11.835 14.3788 11.9348 14.2769 12.0116C14.1733 12.0898 14.0365 12.1359 13.8902 12.1333L13.8902 12.1332H13.8767H7.47065V12.133L7.45719 12.1333C7.31092 12.1359 7.17408 12.0898 7.07045 12.0116C6.96777 11.9342 6.90742 11.8335 6.88622 11.7335L6.88598 11.7323ZM7.06945 16.0814C7.08938 16.0628 7.11372 16.0237 7.11372 15.9705C7.11372 15.9174 7.08938 15.8783 7.06945 15.8597C7.05036 15.8418 7.03198 15.8378 7.02249 15.8378C7.01301 15.8378 6.99463 15.8418 6.97554 15.8597C6.95561 15.8783 6.93127 15.9174 6.93127 15.9705C6.93127 16.0237 6.95561 16.0628 6.97554 16.0814C6.99463 16.0993 7.01301 16.1033 7.02249 16.1033C7.03198 16.1033 7.05036 16.0993 7.06945 16.0814ZM5.61372 15.9705C5.61372 15.1702 6.29125 14.6033 7.02249 14.6033C7.75374 14.6033 8.43127 15.1702 8.43127 15.9705C8.43127 16.7709 7.75374 17.3378 7.02249 17.3378C6.29125 17.3378 5.61372 16.7709 5.61372 15.9705ZM14.3191 16.0814C14.339 16.0628 14.3634 16.0237 14.3634 15.9705C14.3634 15.9174 14.339 15.8783 14.3191 15.8597C14.3 15.8418 14.2816 15.8378 14.2722 15.8378C14.2627 15.8378 14.2443 15.8418 14.2252 15.8597C14.2053 15.8783 14.1809 15.9174 14.1809 15.9705C14.1809 16.0237 14.2053 16.0628 14.2252 16.0814C14.2443 16.0993 14.2627 16.1033 14.2722 16.1033C14.2816 16.1033 14.3 16.0993 14.3191 16.0814ZM12.8634 15.9705C12.8634 15.1702 13.5409 14.6033 14.2722 14.6033C15.0034 14.6033 15.6809 15.1702 15.6809 15.9705C15.6809 16.7709 15.0034 17.3378 14.2722 17.3378C13.5409 17.3378 12.8634 16.7709 12.8634 15.9705Z" fill="#3F434A"/>
</svg>
