<svg width="18" height="18" viewBox="0 0 18 18" xmlns="http://www.w3.org/2000/svg">
<path fill="currentColor" d="M9.34425 1.24508C9.24444 1.16726 9.1215 1.125 8.99494 1.125C8.86838 1.125 8.74544 1.16726 8.64562 1.24508L0.5625 7.54789L1.26169 8.43214L2.25 7.66151V14.6247C2.25059 14.9229 2.36931 15.2087 2.58016 15.4195C2.79101 15.6304 3.07681 15.7491 3.375 15.7497H14.625C14.9232 15.7491 15.209 15.6304 15.4198 15.4195C15.6307 15.2087 15.7494 14.9229 15.75 14.6247V7.66658L16.7383 8.4372L17.4375 7.55295L9.34425 1.24508ZM10.125 14.6247H7.875V10.1247H10.125V14.6247ZM11.25 14.6247V10.1247C11.2497 9.82643 11.1311 9.54045 10.9202 9.32954C10.7093 9.11862 10.4233 9 10.125 8.9997H7.875C7.57672 9 7.29075 9.11862 7.07983 9.32954C6.86892 9.54045 6.7503 9.82643 6.75 10.1247V14.6247H3.375V6.78458L9 2.4027L14.625 6.7902V14.6247H11.25Z"/>
</svg>
