<svg width="20" height="19" viewBox="0 0 20 19" fill="none" xmlns="http://www.w3.org/2000/svg">
<path fill-rule="evenodd" clip-rule="evenodd" d="M2 4.45072C2 4.06264 2.42144 3.74805 2.94132 3.74805H17.0586C17.5785 3.74805 17.9999 4.06264 17.9999 4.45072C17.9999 4.83879 17.5785 5.15339 17.0586 5.15339H2.94132C2.42144 5.15339 2 4.83879 2 4.45072Z" fill="#3F434A"/>
<path fill-rule="evenodd" clip-rule="evenodd" d="M2 9.314C2 8.92592 2.42144 8.61133 2.94132 8.61133H17.0586C17.5785 8.61133 17.9999 8.92592 17.9999 9.314C17.9999 9.70207 17.5785 10.0167 17.0586 10.0167H2.94132C2.42144 10.0167 2 9.70207 2 9.314Z" fill="#3F434A"/>
<path fill-rule="evenodd" clip-rule="evenodd" d="M2 14.1773C2 13.7892 2.42144 13.4746 2.94132 13.4746H17.0586C17.5785 13.4746 17.9999 13.7892 17.9999 14.1773C17.9999 14.5654 17.5785 14.88 17.0586 14.88H2.94132C2.42144 14.88 2 14.5654 2 14.1773Z" fill="#3F434A"/>
</svg>
