<svg width="80" height="20" viewBox="0 0 80 20" fill="none" xmlns="http://www.w3.org/2000/svg">
<path d="M0 0.999999H6.36L7.944 7.336H8.16L9.768 0.999999H16.128L10.944 14.104V19H5.184V14.104L0 0.999999ZM22.509 16.144L21.861 19H15.789L20.445 0.999999H29.349L34.005 19H27.933L27.261 16.144H22.509ZM25.053 6.52H24.741L23.565 11.56H26.205L25.053 6.52ZM51.9197 0.759999V19H47.4077V11.296H45.9197V13.36C45.9197 15.136 45.4637 16.48 44.5517 17.392C43.6397 18.304 42.2957 18.76 40.5197 18.76C38.7437 18.76 37.3997 18.304 36.4877 17.392C35.5757 16.48 35.1197 15.136 35.1197 13.36V6.16C35.1197 4.384 35.5757 3.04 36.4877 2.128C37.3997 1.216 38.7437 0.759999 40.5197 0.759999C42.2957 0.759999 43.6397 1.216 44.5517 2.128C45.4637 3.04 45.9197 4.384 45.9197 6.16V7.696H47.4077V0.759999H51.9197ZM41.3597 5.2C41.3597 4.64 41.0797 4.36 40.5197 4.36C39.9597 4.36 39.6797 4.64 39.6797 5.2V14.32C39.6797 14.88 39.9597 15.16 40.5197 15.16C41.0797 15.16 41.3597 14.88 41.3597 14.32V5.2ZM72.5672 0.711999V19H68.7272V11.776H68.0072V18.76H64.1672V0.711999H68.0072V8.176H68.7272V0.711999H72.5672ZM63.2552 0.951999V4.552H62.0312V14.68H63.4472V18.28H54.8072V0.951999H63.2552ZM58.0712 4.552V14.68H59.1512V4.552H58.0712ZM75.5756 9.4L75.4556 0.999999H79.9676L79.8476 9.4L79.6076 13.528H75.8156L75.5756 9.4ZM77.7116 14.728C78.3516 14.728 78.8796 14.936 79.2956 15.352C79.7276 15.768 79.9436 16.312 79.9436 16.984C79.9436 17.656 79.7276 18.2 79.2956 18.616C78.8796 19.032 78.3516 19.24 77.7116 19.24C77.0716 19.24 76.5356 19.024 76.1036 18.592C75.6716 18.16 75.4556 17.624 75.4556 16.984C75.4556 16.312 75.6716 15.768 76.1036 15.352C76.5356 14.936 77.0716 14.728 77.7116 14.728Z" />
</svg>
