<svg width="16" height="16" viewBox="0 0 16 16" fill="none" xmlns="http://www.w3.org/2000/svg">
<path d="M7.33594 11.332H8.66927V7.33203H7.33594V11.332ZM8.0026 5.9987C8.19149 5.9987 8.34994 5.9347 8.47794 5.8067C8.60594 5.6787 8.66971 5.52048 8.66927 5.33203C8.66927 5.14314 8.60527 4.9847 8.47727 4.8567C8.34927 4.7287 8.19105 4.66492 8.0026 4.66536C7.81371 4.66536 7.65527 4.72936 7.52727 4.85736C7.39927 4.98536 7.33549 5.14359 7.33594 5.33203C7.33594 5.52092 7.39994 5.67936 7.52794 5.80736C7.65594 5.93536 7.81416 5.99914 8.0026 5.9987ZM8.0026 14.6654C7.08038 14.6654 6.21372 14.4903 5.4026 14.14C4.59149 13.7898 3.88594 13.3149 3.28594 12.7154C2.68594 12.1154 2.21105 11.4098 1.86127 10.5987C1.51149 9.78759 1.33638 8.92092 1.33594 7.9987C1.33594 7.07648 1.51105 6.20981 1.86127 5.3987C2.21149 4.58759 2.68638 3.88203 3.28594 3.28203C3.88594 2.68203 4.59149 2.20714 5.4026 1.85736C6.21372 1.50759 7.08038 1.33248 8.0026 1.33203C8.92483 1.33203 9.79149 1.50714 10.6026 1.85736C11.4137 2.20759 12.1193 2.68248 12.7193 3.28203C13.3193 3.88203 13.7944 4.58759 14.1446 5.3987C14.4948 6.20981 14.6697 7.07648 14.6693 7.9987C14.6693 8.92092 14.4942 9.78759 14.1439 10.5987C13.7937 11.4098 13.3188 12.1154 12.7193 12.7154C12.1193 13.3154 11.4137 13.7905 10.6026 14.1407C9.79149 14.4909 8.92483 14.6658 8.0026 14.6654ZM8.0026 13.332C9.49149 13.332 10.7526 12.8154 11.7859 11.782C12.8193 10.7487 13.3359 9.48759 13.3359 7.9987C13.3359 6.50981 12.8193 5.2487 11.7859 4.21536C10.7526 3.18203 9.49149 2.66536 8.0026 2.66536C6.51371 2.66536 5.2526 3.18203 4.21927 4.21536C3.18594 5.2487 2.66927 6.50981 2.66927 7.9987C2.66927 9.48759 3.18594 10.7487 4.21927 11.782C5.2526 12.8154 6.51371 13.332 8.0026 13.332Z" fill="#FF3E3E"/>
</svg>
